<svg width="24" height="25" viewBox="0 0 24 25" fill="none" xmlns="http://www.w3.org/2000/svg">
<path opacity="0.32" d="M21.1808 17.3219C20.8971 17.977 20.2225 18.3516 19.5086 18.3516H14.8154C14.8462 18.2661 14.8735 18.1785 14.8971 18.0889C15.1709 17.049 14.8825 15.9906 14.2214 15.2479C14.4654 13.2607 14.6177 11.2248 14.7108 9.61672C14.7569 8.81887 13.7795 8.55237 13.4274 9.26682C12.7178 10.7068 11.8493 12.5474 11.0842 14.3926C10.1467 14.6994 9.3768 15.4692 9.10295 16.5091C8.93642 17.1415 8.97782 17.7807 9.18451 18.3516H4.49141C3.77747 18.3516 3.10288 17.977 2.81918 17.3219C2.29212 16.1048 2 14.7623 2 13.3516C2 7.82871 6.47715 3.35156 12 3.35156C17.5229 3.35156 22 7.82871 22 13.3516C22 14.7623 21.7079 16.1048 21.1808 17.3219Z" fill="black"/>
<path d="M14.7108 9.61672C14.7569 8.81887 13.7795 8.55237 13.4274 9.26682C12.7178 10.7068 11.8493 12.5474 11.0842 14.3926C10.1467 14.6994 9.3768 15.4692 9.10295 16.5091C8.6742 18.1372 9.62375 19.8106 11.2238 20.2468C12.8238 20.6831 14.4684 19.7169 14.8971 18.0889C15.1709 17.049 14.8825 15.9906 14.2214 15.2479C14.4654 13.2607 14.6177 11.2248 14.7108 9.61672Z" fill="black"/>
</svg>
