<svg width="24" height="25" viewBox="0 0 24 25" fill="none" xmlns="http://www.w3.org/2000/svg">
<path opacity="0.32" fill-rule="evenodd" clip-rule="evenodd" d="M17.7552 2.65235C17.3515 2.46528 17.1169 2.44074 17.0629 2.43752C15.7656 2.38633 14.1081 2.35156 11.9987 2.35156C7.72401 2.35156 5.30521 2.49432 3.97938 2.62727C3.03982 2.72149 2.36858 3.39273 2.27436 4.33228C2.14141 5.65811 1.99866 8.07691 1.99866 12.3516C1.99866 16.9963 2.1672 19.9556 2.30858 21.6209C2.37392 22.3906 3.24508 22.7296 3.83851 22.235L5.49866 20.8516L6.86576 22.2187C7.22606 22.579 7.79966 22.6108 8.19756 22.2924L9.99866 20.8516L11.2916 22.1445C11.6821 22.535 12.3153 22.535 12.7058 22.1445L13.9987 20.8516L15.7998 22.2924C16.1977 22.6108 16.7713 22.579 17.1316 22.2187L18.4987 20.8516L20.1588 22.235C20.7522 22.7296 21.6234 22.3906 21.6888 21.6209C21.8301 19.9556 21.9987 16.9963 21.9987 12.3516C21.9987 10.2244 21.9633 8.55684 21.9114 7.25478C21.4739 7.30857 20.8557 7.35201 19.9996 7.35201C19.3701 7.35201 18.8693 7.32851 18.4743 7.29471C17.6142 7.22106 17.0555 6.56351 17.0224 5.70096C17.0088 5.34402 16.9996 4.90032 16.9996 4.35202C16.9996 3.46554 17.0235 2.85248 17.0518 2.4375C17.0518 2.4375 17.2921 2.43792 17.7552 2.65235ZM11.6585 15.6188C12.2028 15.6188 12.5959 15.5268 12.8378 15.3428C13.0897 15.1588 13.2157 14.9333 13.2157 14.6665C13.2157 14.4273 13.12 14.2341 12.9285 14.0868C12.737 13.9396 12.4497 13.8108 12.0667 13.7004L11.2352 13.452C10.8219 13.3323 10.449 13.2035 10.1164 13.0655C9.78376 12.9275 9.50156 12.7619 9.26971 12.5686C9.03791 12.3754 8.85646 12.1454 8.72546 11.8786C8.59441 11.6117 8.52891 11.2943 8.52891 10.9262C8.52891 10.3005 8.74056 9.78066 9.16391 9.36661C9.58721 8.95256 10.192 8.67651 10.9782 8.53851V8.14596C10.9782 7.73776 11.2609 7.37296 11.6688 7.35501C11.7211 7.35271 11.7732 7.35156 11.8248 7.35156C12.1977 7.35156 12.4648 7.41136 12.6261 7.53096C12.7975 7.65061 12.8831 7.86681 12.8831 8.17966V8.48331C13.5282 8.54771 14.0523 8.69031 14.4555 8.91116C14.8586 9.12276 15.0602 9.40341 15.0602 9.75306C15.0602 9.90881 15.019 10.053 14.9478 10.1839C14.7581 10.5319 14.2848 10.5062 13.9093 10.3795C13.8019 10.3432 13.6867 10.3093 13.5635 10.2775C13.1805 10.1671 12.7622 10.1119 12.3086 10.1119C11.8047 10.1119 11.4267 10.1901 11.1747 10.3466C10.9328 10.4938 10.8118 10.687 10.8118 10.9262C10.8118 11.1195 10.8925 11.2759 11.0538 11.3955C11.2251 11.5151 11.4821 11.6255 11.8248 11.7267L12.6715 11.9614C13.5786 12.219 14.2741 12.5594 14.7579 12.9827C15.2517 13.4059 15.4987 13.9764 15.4987 14.6941C15.4987 15.329 15.2769 15.8673 14.8334 16.3089C14.39 16.7414 13.7399 17.0312 12.8831 17.1784V17.5572C12.8831 17.9654 12.6003 18.3302 12.1925 18.3481C12.1402 18.3504 12.0881 18.3516 12.0365 18.3516C11.6635 18.3516 11.3914 18.2918 11.2201 18.1722C11.0588 18.0525 10.9782 17.8363 10.9782 17.5235V17.2474C10.2424 17.1738 9.64266 17.0128 9.17901 16.7644C8.72546 16.5067 8.49866 16.1847 8.49866 15.7982C8.49866 15.5725 8.58531 15.3765 8.72431 15.2117C8.97316 14.9167 9.41626 14.9898 9.75911 15.1671C9.90536 15.2427 10.0648 15.315 10.2373 15.3842C10.6506 15.5406 11.1243 15.6188 11.6585 15.6188Z" fill="#637381"/>
<path d="M21.9128 7.25466C21.4752 7.30851 20.8567 7.35201 20 7.35201C19.3705 7.35201 18.8696 7.32851 18.4746 7.29471C17.6146 7.22106 17.0559 6.56351 17.0228 5.70096C17.0092 5.34402 17 4.90032 17 4.35202C17 3.46554 17.0239 2.85248 17.0522 2.4375C17.0522 2.4375 18.0872 2.43929 20 4.35202C21.9128 6.26476 21.9128 7.25466 21.9128 7.25466Z" fill="#637381"/>
<path d="M11.6599 15.6188C12.2041 15.6188 12.5972 15.5268 12.8391 15.3428C13.091 15.1588 13.217 14.9333 13.217 14.6665C13.217 14.4273 13.1213 14.2341 12.9298 14.0868C12.7383 13.9396 12.4511 13.8108 12.0681 13.7004L11.2365 13.452C10.8232 13.3323 10.4503 13.2035 10.1177 13.0655C9.7851 12.9275 9.5029 12.7619 9.27105 12.5686C9.03925 12.3754 8.8578 12.1454 8.7268 11.8786C8.59575 11.6117 8.53025 11.2943 8.53025 10.9262C8.53025 10.3005 8.7419 9.78066 9.16525 9.36661C9.58855 8.95256 10.1933 8.67651 10.9795 8.53851V8.14596C10.9795 7.73776 11.2623 7.37296 11.6701 7.35501C11.7225 7.35271 11.7745 7.35156 11.8261 7.35156C12.199 7.35156 12.4662 7.41136 12.6274 7.53096C12.7988 7.65061 12.8844 7.86681 12.8844 8.17966V8.48331C13.5295 8.54771 14.0537 8.69031 14.4568 8.91116C14.86 9.12276 15.0616 9.40341 15.0616 9.75306C15.0616 9.90881 15.0203 10.053 14.9491 10.1839C14.7594 10.5319 14.2861 10.5062 13.9106 10.3795C13.8032 10.3432 13.688 10.3093 13.5648 10.2775C13.1818 10.1671 12.7635 10.1119 12.3099 10.1119C11.806 10.1119 11.428 10.1901 11.1761 10.3466C10.9341 10.4938 10.8132 10.687 10.8132 10.9262C10.8132 11.1195 10.8938 11.2759 11.0551 11.3955C11.2264 11.5151 11.4834 11.6255 11.8261 11.7267L12.6728 11.9614C13.5799 12.219 14.2754 12.5594 14.7592 12.9827C15.253 13.4059 15.5 13.9764 15.5 14.6941C15.5 15.329 15.2783 15.8673 14.8348 16.3089C14.3913 16.7414 13.7412 17.0312 12.8844 17.1784V17.5572C12.8844 17.9654 12.6016 18.3302 12.1938 18.3481C12.1415 18.3504 12.0894 18.3516 12.0378 18.3516C11.6648 18.3516 11.3928 18.2918 11.2214 18.1722C11.0601 18.0525 10.9795 17.8363 10.9795 17.5235V17.2474C10.2437 17.1738 9.644 17.0128 9.18035 16.7644C8.7268 16.5067 8.5 16.1847 8.5 15.7982C8.5 15.5725 8.58665 15.3765 8.72565 15.2117C8.9745 14.9167 9.4176 14.9898 9.76045 15.1671C9.9067 15.2427 10.0661 15.315 10.2387 15.3842C10.6519 15.5406 11.1257 15.6188 11.6599 15.6188Z" fill="#637381"/>
</svg>
