<?xml version="1.0" standalone="no"?>
<!DOCTYPE svg PUBLIC "-//W3C//DTD SVG 20010904//EN"
 "http://www.w3.org/TR/2001/REC-SVG-20010904/DTD/svg10.dtd">
<svg version="1.0" xmlns="http://www.w3.org/2000/svg"
 width="500.000000pt" height="500.000000pt" viewBox="0 0 500.000000 500.000000"
 preserveAspectRatio="xMidYMid meet">

<g transform="translate(0.000000,500.000000) scale(0.100000,-0.100000)"
fill="#000000" stroke="none">
<path d="M2325 4764 c-483 -49 -852 -190 -1217 -466 -172 -129 -387 -366 -521
-574 -59 -92 -177 -328 -215 -434 -36 -98 -84 -285 -106 -415 -53 -313 -37
-637 48 -970 119 -461 408 -902 792 -1207 380 -301 893 -478 1391 -478 413 0
787 102 1154 315 290 169 558 427 756 731 72 112 193 364 236 494 43 129 92
366 108 519 14 140 6 448 -15 581 -38 235 -99 426 -201 635 -117 241 -240 413
-433 608 -352 357 -777 570 -1277 643 -99 14 -423 26 -500 18z m508 -623 c198
-43 394 -123 539 -219 148 -97 181 -124 290 -234 132 -133 227 -267 315 -445
55 -111 60 -143 26 -143 -13 1 -38 43 -91 150 -154 313 -393 550 -719 714
-106 53 -212 88 -348 117 -554 115 -1092 -43 -1478 -435 -119 -121 -198 -234
-279 -398 -52 -105 -78 -147 -91 -147 -36 -2 -29 32 27 145 164 330 406 580
722 746 144 76 318 130 554 172 14 2 117 3 230 1 164 -2 225 -7 303 -24z
m-299 -375 c14 -24 38 -54 53 -65 l28 -21 -31 -28 c-18 -15 -43 -44 -57 -65
l-26 -38 -20 40 c-11 21 -34 49 -51 61 l-31 22 41 44 c22 24 46 55 52 69 6 14
12 25 14 25 1 0 14 -20 28 -44z m-660 -231 c21 -11 43 -14 73 -9 l43 6 -16
-38 c-14 -34 -14 -41 0 -71 17 -37 17 -37 -36 -23 -29 8 -45 7 -74 -5 l-37
-15 7 37 c10 50 10 52 1 96 -8 41 -3 44 39 22z m1306 6 c0 -4 -5 -22 -11 -39
-7 -21 -7 -42 1 -72 6 -23 9 -44 7 -46 -2 -2 -21 3 -41 11 -29 12 -45 13 -73
6 -20 -6 -39 -9 -41 -7 -2 2 3 17 11 33 13 25 13 33 1 62 -8 18 -14 36 -14 38
0 3 19 3 43 -1 28 -4 50 -1 67 9 28 16 50 19 50 6z m790 -808 l0 -147 31 30
c17 16 44 48 60 72 28 40 33 42 79 42 28 0 50 -3 50 -7 0 -5 -29 -41 -65 -81
-36 -40 -65 -74 -65 -76 0 -1 31 -43 70 -92 l69 -89 -40 -3 c-23 -2 -47 -1
-54 2 -7 2 -40 40 -72 83 l-58 78 -3 -82 -3 -83 -44 0 -45 0 0 250 0 250 45 0
45 0 0 -147z m-2927 113 c18 -8 41 -21 52 -29 20 -16 20 -16 -5 -42 l-26 -25
-50 21 c-60 26 -96 21 -120 -16 -15 -23 -15 -27 -1 -48 15 -23 24 -28 118 -62
79 -28 101 -53 107 -118 3 -45 0 -62 -17 -91 -42 -67 -174 -85 -268 -38 -63
32 -68 44 -37 81 26 32 27 32 48 13 34 -31 62 -42 110 -42 55 0 78 20 74 64
-3 29 -9 33 -90 66 -98 40 -123 58 -138 106 -31 93 40 174 153 174 32 0 72 -6
90 -14z m1611 -153 c22 -87 42 -164 46 -171 4 -8 29 62 56 155 l50 168 45 3
45 3 48 -158 c26 -87 49 -165 53 -173 3 -8 24 62 47 155 l41 170 48 3 c31 2
47 -1 47 -9 0 -11 -87 -320 -116 -411 l-16 -48 -48 0 -48 0 -14 48 c-8 26 -30
102 -49 169 -19 68 -37 123 -40 123 -3 0 -14 -33 -23 -72 -10 -40 -30 -116
-45 -168 l-29 -95 -53 0 -53 0 -18 65 c-70 259 -99 367 -104 383 -5 14 2 17
43 17 l48 0 39 -157z m-1212 21 c60 -31 90 -138 64 -227 -19 -64 -57 -103
-113 -113 -33 -6 -47 -4 -105 21 -16 6 -18 -1 -18 -74 l0 -81 -45 0 -45 0 0
245 0 245 40 0 c37 0 40 -2 40 -27 l0 -26 23 21 c45 43 96 48 159 16z m346 -2
c43 -28 52 -62 52 -202 l0 -130 -35 0 c-25 0 -35 4 -35 15 0 13 -6 12 -40 -5
-111 -56 -210 18 -169 128 18 47 67 72 143 75 60 2 66 9 40 46 -15 21 -22 23
-63 17 -25 -3 -55 -8 -67 -11 -15 -5 -23 0 -32 20 -16 34 -18 31 31 49 75 27
130 27 175 -2z m352 -16 c0 -42 -9 -51 -49 -53 -62 -3 -76 -28 -79 -153 l-4
-110 -39 0 -39 0 0 175 0 175 34 0 c28 0 35 -4 40 -26 l7 -27 22 21 c52 49
107 48 107 -2z m275 15 c41 -23 75 -86 75 -138 l0 -43 -120 0 c-135 0 -145 -7
-91 -61 34 -34 74 -38 127 -13 33 16 36 16 49 -2 23 -31 18 -44 -27 -64 -79
-36 -195 -15 -232 42 -40 61 -34 200 10 249 52 58 139 70 209 30z m1056 -6
c85 -55 102 -193 33 -275 -83 -99 -253 -70 -293 49 -26 79 1 190 55 226 59 39
144 39 205 0z m219 0 c0 -14 4 -25 8 -25 5 0 19 11 32 25 17 18 34 25 62 25
35 0 38 -2 37 -27 -1 -45 -12 -58 -49 -60 -24 -1 -42 -10 -57 -28 -21 -24 -23
-36 -23 -131 l0 -104 -40 0 -40 0 0 175 0 175 35 0 c31 0 35 -3 35 -25z
m-3112 -233 l-25 -30 -23 30 -22 30 23 24 23 25 25 -25 24 -24 -25 -30z m3886
53 c15 -23 15 -27 0 -50 -9 -14 -19 -25 -23 -25 -4 0 -18 11 -31 25 l-23 25
23 25 c13 14 27 25 31 25 4 0 14 -11 23 -25z m-1716 -318 c4 -20 -25 -34 -40
-19 -15 15 -1 44 19 40 10 -2 19 -11 21 -21z m-921 -13 c21 -21 24 -32 19 -62
-7 -49 -37 -72 -92 -72 l-44 0 0 -45 c0 -38 -3 -45 -20 -45 -19 0 -20 7 -20
125 l0 125 65 0 c57 0 69 -3 92 -26z m-842 -120 c54 -192 157 -393 283 -550
66 -82 87 -102 97 -94 10 9 39 -9 127 -78 151 -120 257 -182 412 -243 426
-166 829 -157 1261 29 115 49 213 111 348 218 79 63 112 83 120 75 12 -12 29
5 136 144 38 50 96 144 130 210 59 118 131 312 131 354 0 14 6 21 20 21 30 0
34 -21 16 -98 -36 -160 -166 -410 -295 -571 -42 -51 -80 -99 -85 -106 -6 -8
42 -72 151 -201 87 -104 162 -194 166 -200 6 -11 -175 -171 -260 -229 -293
-198 -541 -301 -888 -367 -105 -20 -151 -23 -360 -22 -260 0 -329 8 -540 64
-206 55 -434 153 -598 258 -133 86 -352 264 -352 287 0 8 36 58 80 111 44 53
115 139 158 191 42 51 77 97 77 101 0 5 -10 17 -21 28 -45 40 -149 183 -209
288 -73 128 -131 264 -156 371 -16 66 -16 78 -3 86 24 15 32 5 54 -77z m1045
65 c0 -12 -7 -19 -18 -19 -31 0 -42 -22 -42 -87 0 -61 -1 -63 -25 -63 -25 0
-25 1 -25 88 0 49 3 91 6 94 3 4 28 6 55 6 42 1 49 -2 49 -19z m205 -4 c16
-15 25 -36 25 -55 l0 -30 -65 0 c-52 0 -65 -3 -65 -15 0 -24 43 -39 69 -25 17
9 26 9 38 -1 13 -12 13 -14 -3 -26 -10 -7 -37 -13 -61 -13 -59 0 -93 33 -93
89 0 88 96 136 155 76z m145 13 c0 -9 3 -9 12 0 17 17 64 15 81 -3 13 -13 16
-13 27 0 16 20 74 19 94 -1 12 -11 16 -36 16 -95 0 -72 -2 -79 -20 -79 -18 0
-20 7 -20 70 0 56 -3 72 -16 77 -34 13 -49 -11 -52 -81 -3 -62 -4 -66 -27 -66
-23 0 -24 3 -27 72 -3 63 -6 73 -22 76 -30 6 -46 -26 -46 -90 0 -51 -2 -58
-20 -58 -19 0 -20 7 -20 95 0 88 1 95 20 95 11 0 20 -5 20 -12z m365 -83 c0
-86 -1 -90 -22 -93 -22 -3 -23 -1 -23 93 0 94 1 96 23 93 21 -3 22 -7 22 -93z
m125 43 c0 -81 8 -98 41 -98 35 0 38 5 46 85 5 54 9 65 24 65 17 0 19 -9 19
-94 l0 -93 -67 -1 c-93 -2 -103 9 -103 110 0 71 2 78 20 78 17 0 20 -7 20 -52z
m250 40 c0 -9 3 -9 12 0 17 17 73 15 88 -3 11 -13 14 -13 27 0 19 20 72 19 95
-2 14 -13 18 -31 18 -95 0 -71 -2 -78 -20 -78 -18 0 -20 7 -20 63 0 65 -11 87
-42 87 -25 0 -38 -31 -38 -94 0 -49 -2 -56 -20 -56 -17 0 -19 8 -22 73 -3 67
-5 72 -27 75 -32 5 -41 -12 -41 -85 0 -60 -1 -63 -25 -63 -25 0 -25 0 -25 95
0 88 1 95 20 95 11 0 20 -5 20 -12z m-1550 -73 c0 -13 -27 -15 -180 -15 -153
0 -180 2 -180 15 0 13 27 15 180 15 153 0 180 -2 180 -15z m2230 0 c0 -13 -27
-15 -180 -15 -153 0 -180 2 -180 15 0 13 27 15 180 15 153 0 180 -2 180 -15z
m-1184 -546 c33 -31 66 -58 74 -62 12 -5 12 -8 -5 -18 -42 -27 -112 -100 -145
-153 -19 -31 -37 -56 -40 -56 -3 0 -16 21 -29 46 -14 25 -56 74 -94 110 l-70
65 24 16 c43 30 116 110 144 158 l28 46 27 -48 c15 -26 54 -73 86 -104z m-607
78 c29 -18 53 -35 52 -39 0 -5 -1 -26 -1 -48 l0 -40 -115 0 -115 0 0 48 c0 47
0 47 58 79 31 18 59 32 62 32 3 0 29 -14 59 -32z m1111 -1 c53 -31 55 -34 55
-77 l0 -44 -117 -3 -118 -3 0 48 c1 47 2 49 53 79 29 18 57 32 62 33 6 0 35
-15 65 -33z"/>
<path d="M1313 2650 c-32 -13 -43 -41 -43 -109 0 -52 3 -62 26 -80 30 -24 43
-26 77 -10 32 15 47 49 47 108 0 74 -48 115 -107 91z"/>
<path d="M1662 2523 c-22 -9 -34 -41 -22 -63 25 -46 120 -10 120 45 0 23 -4
25 -42 24 -24 0 -49 -3 -56 -6z"/>
<path d="M2282 2644 c-12 -8 -22 -24 -22 -35 0 -17 7 -19 70 -19 62 0 70 2 70
19 0 47 -71 68 -118 35z"/>
<path d="M3333 2650 c-29 -12 -45 -44 -45 -94 -1 -59 9 -84 42 -101 59 -30
104 -8 118 60 21 102 -35 167 -115 135z"/>
<path d="M1710 2141 c0 -40 1 -41 34 -41 39 0 59 19 54 52 -2 19 -10 23 -45
26 l-43 3 0 -40z"/>
<path d="M1470 1008 c-36 -56 -66 -107 -68 -113 -1 -6 9 -18 24 -25 27 -15 35
-10 64 40 7 12 14 11 48 -8 54 -30 84 -28 121 9 35 35 40 73 13 105 -14 17
-126 95 -135 94 -1 0 -31 -46 -67 -102z m131 -7 c20 -16 22 -23 13 -38 -15
-25 -35 -26 -62 -5 -21 16 -21 19 -7 40 20 27 26 27 56 3z"/>
<path d="M3387 1081 c-15 -10 -29 -20 -32 -23 -3 -3 0 -40 6 -82 5 -43 8 -80
6 -83 -3 -2 -36 18 -74 45 l-68 50 -35 -21 c-19 -11 -36 -21 -38 -22 -1 -2 10
-24 26 -51 16 -27 45 -76 63 -108 38 -67 46 -72 74 -52 20 14 19 16 -19 87
l-39 73 59 -45 c79 -61 81 -62 104 -49 14 7 18 18 15 38 -2 15 -7 54 -9 87
l-6 60 41 -72 40 -73 30 15 c34 18 35 24 10 56 -23 30 -95 149 -104 172 -8 21
-14 20 -50 -2z"/>
<path d="M1717 868 c-52 -125 -54 -133 -31 -142 30 -11 40 -6 57 30 23 47 41
39 45 -19 3 -40 7 -49 32 -62 16 -8 31 -15 35 -15 3 0 5 22 5 49 0 39 4 51 18
55 32 10 63 52 64 84 2 59 -17 73 -163 127 -12 5 -26 -18 -62 -107z m151 -8
c5 -31 -13 -40 -54 -27 -38 11 -39 15 -23 51 11 23 14 24 43 12 20 -8 32 -21
34 -36z"/>
<path d="M3030 910 c-14 -9 -8 -50 26 -167 7 -25 -26 -63 -55 -63 -31 0 -49
26 -72 103 -12 40 -24 75 -28 79 -10 11 -61 -3 -61 -18 0 -35 54 -179 75 -200
56 -56 193 -13 210 67 4 17 -4 61 -21 118 -27 92 -38 104 -74 81z"/>
<path d="M2024 876 c-9 -27 -54 -223 -54 -238 0 -10 3 -18 8 -18 4 0 45 -9 92
-20 88 -20 99 -17 100 22 0 13 -15 20 -60 30 -53 11 -60 15 -60 36 0 23 2 24
43 18 23 -4 52 -9 65 -13 19 -4 22 -1 22 25 0 29 -3 30 -51 37 -50 7 -72 26
-51 47 7 7 28 6 67 -2 31 -6 58 -10 60 -8 2 1 5 14 7 27 3 23 -2 26 -90 47
-65 15 -95 18 -98 10z"/>
<path d="M2701 831 c-12 -8 -12 -27 4 -135 l18 -126 28 0 c15 0 30 4 33 9 5 8
-15 170 -30 239 -5 23 -28 29 -53 13z"/>
<path d="M2286 808 c-3 -13 -6 -74 -6 -135 l0 -113 30 0 c28 0 30 3 31 38 0
20 4 57 8 82 l7 45 28 -82 c37 -110 52 -111 105 -5 l40 77 1 -82 0 -83 29 0
c17 0 32 4 35 8 3 5 6 64 7 133 l1 124 -43 3 -44 3 -39 -78 -39 -78 -13 30
c-8 17 -21 54 -29 83 l-16 52 -44 0 c-36 0 -44 -4 -49 -22z"/>
<path d="M2153 2119 c-13 -5 -23 -15 -23 -24 0 -11 11 -15 45 -15 42 0 45 2
36 19 -13 24 -31 30 -58 20z"/>
</g>
</svg>
